<svg xmlns="http://www.w3.org/2000/svg" viewBox="0 0 143.67 142.44"><defs><style>.cls-1{fill:#323f3f;}.cls-2{fill:#1d1d1b;}.cls-3{fill:#68c6df;}.cls-4{fill:#fff;stroke:#1d1d1b;stroke-miterlimit:10;stroke-width:0.5px;}</style></defs><g id="katman_2" data-name="katman 2"><g id="katman_1-2" data-name="katman 1"><path class="cls-1" d="M8.38,30.57,70.1.47a4.63,4.63,0,0,1,4.09,0l61.16,30.08a4.64,4.64,0,0,1,.05,8.3L74,70.12a4.6,4.6,0,0,1-4.21,0L8.31,38.88A4.64,4.64,0,0,1,8.38,30.57Z"/><path class="cls-2" d="M7.43,40.51,64.9,71.14a4.59,4.59,0,0,1,2.51,4V137.8c0,3.36-3.7,5.6-7,4.24L3,118.16A4.65,4.65,0,0,1,0,113.92V44.55C0,41,4.12,38.75,7.43,40.51Z"/><path class="cls-3" d="M136.1,40.51,77.56,71.14a4.58,4.58,0,0,0-2.56,4V137.8c0,3.36,3.77,5.6,7.12,4.24l58.55-23.88a4.66,4.66,0,0,0,3-4.24V44.55C143.67,41,139.48,38.75,136.1,40.51Z"/><polygon class="cls-4" points="127.38 101.25 71.1 128.89 14.83 102.14 15.56 48.05 73.08 16.34 128.11 48.05 114.36 55.65 72.7 30.1 29.32 55.65 28.68 94.92 71.2 115.14 113.72 94.25 127.38 101.25"/></g></g></svg>