<svg xmlns="http://www.w3.org/2000/svg" viewBox="0 0 303.92 50.72"><defs><style>.cls-1{fill:#fff;}.cls-2{fill:#68c6df;}</style></defs><g id="katman_2" data-name="katman 2"><g id="katman_1-2" data-name="katman 1"><path class="cls-1" d="M40.73,34.47C39.4,42.8,33.81,50.72,21.14,50.72,5.6,50.72,0,39.4,0,25.32,0,11.4,7.16,0,21.56,0,34.88,0,40,8.5,40.45,16.16H30.62c-1-4.07-2.62-8.09-9.39-8.09-8.22,0-10.89,8.33-10.89,17.2,0,9.38,2.58,17.44,11,17.44,6.59,0,8.57-4.56,9.5-8.24Z"/><path class="cls-1" d="M48.1.66H58.16V20.14h18V.66H86.26V50H76.19V28.46h-18V50H48.1Z"/><path class="cls-1" d="M105.44,38.27,102,50H92.08c.64-1.93,14.36-47.16,15.08-49.34h13L136,50H125.47l-3.74-11.73ZM119.75,30c-3.06-10-5.2-17.06-6.32-21.66h-.08c-1.19,5.48-3.43,13.18-6,21.66Z"/><path class="cls-1" d="M145.83,9H132.46V.66h36.89V9H156V50H145.83Z"/><path class="cls-2" d="M174,.66H193.2c10.81,0,15.6,5.71,15.6,12.54,0,6.2-3.39,8.84-6,10a12.27,12.27,0,0,1,7.71,11.91c0,9.5-7.15,14.93-17.65,14.93H174Zm17.44,19.4c5.18,0,7.57-1.64,7.57-5.84s-2.78-5.9-7.07-5.9H183.9V20.06ZM183.9,42.4h8.21c4.57,0,8.14-2.2,8.14-7.31,0-4.81-2.82-7.42-8.9-7.42H183.9Z"/><path class="cls-2" d="M260.49,25.09c0,14.2-6.86,25.63-22.4,25.63C222.87,50.72,216.37,39,216.37,25c0-12.15,6.65-25,22.41-25C253.7,0,260.49,11.82,260.49,25.09ZM226.77,25c0,9.85,3.92,17.69,11.73,17.69,8.58,0,11.68-7.29,11.68-17.61C250.18,16,247.12,8,238.33,8,230.18,8,226.77,15.53,226.77,25Z"/><path class="cls-2" d="M292.46,50l-9.84-17.68h-.07L272.65,50H262l15.08-24.8L262.36.66h11.52l9.25,16.65.07-.07L292.68.66H303.3L288.71,24.23,303.92,50Z"/></g></g></svg>